<?xml version="1.0" encoding="iso-8859-1"?>
<!-- Generator: Adobe Illustrator 19.0.0, SVG Export Plug-In . SVG Version: 6.00 Build 0)  -->
<svg version="1.1" id="Layer_1" xmlns="http://www.w3.org/2000/svg" xmlns:xlink="http://www.w3.org/1999/xlink" x="0px" y="0px"
	 viewBox="0 0 496 496" style="enable-background:new 0 0 496 496;" xml:space="preserve">
<path style="fill:#8EA5A4;" d="M496,476.8c0,10.4-8.8,19.2-19.2,19.2H19.2C8.8,496,0,487.2,0,476.8V19.2C0,8.8,8.8,0,19.2,0h457.6
	C487.2,0,496,8.8,496,19.2V476.8z"/>
<path style="fill:#FDFFFF;" d="M16,80v389.6C16,480,23.2,480,32.8,480h430.4c9.6,0,16.8,0,16.8-10.4V80H16z"/>
<path style="fill:#E8EFEF;" d="M463.2,480c9.6,0,16.8-0.8,16.8-10.4V80H16"/>
<rect x="16" y="80" style="fill:#DCE5E5;" width="464" height="24"/>
<path style="fill:#FDFFFF;" d="M403.2,40c0,9.6-8,16-17.6,16H32c-9.6,0-8-6.4-8-16l0,0c0-9.6-1.6-16,8-16h353.6
	C395.2,24,403.2,30.4,403.2,40L403.2,40z"/>
<path style="fill:#E6EFEF;" d="M24,40.8L24,40.8c0-9.6-1.6-16.8,8-16.8h353.6c9.6,0,17.6,7.2,17.6,16.8l0,0"/>
<circle style="opacity:0.4;fill:#B1BCBC;enable-background:new    ;" cx="426.4" cy="41.6" r="8.8"/>
<circle style="fill:#FFFFFF;" cx="426.4" cy="37.6" r="8.8"/>
<path style="fill:#E8EFEE;" d="M420,31.2c3.2-3.2,9.6-3.2,12.8,0c3.2,3.2,3.2,9.6,0,12.8"/>
<circle style="opacity:0.4;fill:#B1BCBC;enable-background:new    ;" cx="462.4" cy="41.6" r="8.8"/>
<circle style="fill:#FFFFFF;" cx="462.4" cy="37.6" r="8.8"/>
<path style="fill:#E8EFEE;" d="M456,31.2c3.2-3.2,9.6-3.2,12.8,0c3.2,3.2,3.2,9.6,0,12.8"/>
<path style="fill:#8EA5A4;" d="M100.8,32l-0.8-0.8h-2.4c-0.8,0-0.8,0-0.8,0.8l-1.6,6.4l0,0l0,0L92.8,32c-0.8,0-0.8,0-1.6,0h-2.4
	C88,32,88,32,88,32.8L85.6,40l0,0l0,0L84,33.6c0-1.6,0-1.6-0.8-1.6h-2.4H80h-0.8h-2.4C76,32,76,32,76,32.8l-1.6,6.4l0,0l0,0L72,32.8
	c0-0.8-0.8-0.8-1.6-0.8h-1.6c-0.8,0-0.8,0-1.6,0.8l-1.6,6.4l0,0l0,0l-2.4-6.4c0-0.8,0-0.8-0.8-0.8H60h-0.8c0,0,0,0-0.8,0H56
	c0,0-0.8,0-0.8,0.8l-1.6,6.4l0,0l0,0l-2.4-6.4c0-0.8-0.8-0.8-1.6-0.8H48c-0.8,0-0.8,0-0.8,0.8l-2.4,6.4l0,0l0,0l-1.6-6.4
	C42.4,32,42.4,32,41.6,32h-2.4c0,0-0.8,0-0.8,0.8v0.8l4,13.6c0,0.8,0.8,0.8,0.8,0.8h2.4c0.8,0,0.8,0,0.8-0.8l2.4-7.2c0,0,0,0,0-0.8
	c0,0,0,0,0,0.8l2.4,6.4c0,0.8,0.8,0.8,0.8,0.8h2.4c0.8,0,0.8,0,0.8-0.8l4-12l3.2,12c0,0.8,0.8,0.8,0.8,0.8h2.4c0.8,0,0.8,0,0.8-0.8
	l3.2-6.4c0,0,0,0,0-0.8c0,0,0,0,0,0.8l2.4,6.4c0,0.8,0.8,0.8,0.8,0.8h2.4c0.8,0,0.8,0,0.8-0.8l4-12l3.2,12c0,0.8,0.8,0.8,0.8,0.8
	h2.4c0.8,0,0.8,0,0.8-0.8l3.2-6.4c0,0,0,0,0-0.8c0,0,0,0,0,0.8l2.4,6.4c0,0.8,0.8,0.8,0.8,0.8H96c0.8,0,0.8,0,0.8-0.8l4-13.6
	C101.6,32.8,101.6,32,100.8,32z"/>
<path style="opacity:0.2;fill:#B5C6C6;enable-background:new    ;" d="M461.6,430.4L416,384l45.6-45.6c6.4-6.4,10.4-15.2,10.4-24
	s-3.2-17.6-10.4-24c-13.6-13.6-35.2-13.6-48.8,0L367.2,336l-45.6-45.6c-13.6-13.6-35.2-13.6-48.8,0s-13.6,35.2,0,48.8l45.6,45.6
	l-45.6,45.6c-13.6,13.6-13.6,27.2,0,40.8s35.2,13.6,48.8,0l45.6-37.6l45.6,37.6c6.4,6.4,15.2,10.4,24,10.4s17.6-3.2,24-10.4
	C475.2,457.6,475.2,443.2,461.6,430.4z"/>
<path style="fill:#D80034;" d="M461.6,411.2L416,365.6l45.6-45.6c6.4-6.4,10.4-15.2,10.4-24s-3.2-17.6-10.4-24
	c-13.6-13.6-35.2-13.6-48.8,0l-45.6,45.6L321.6,272c-13.6-13.6-35.2-13.6-48.8,0s-13.6,35.2,0,48.8l45.6,45.6L272.8,412
	c-13.6,13.6-13.6,35.2,0,48.8s35.2,13.6,48.8,0l45.6-45.6l45.6,45.6c6.4,6.4,15.2,10.4,24,10.4s17.6-3.2,24-10.4
	C475.2,446.4,475.2,424.8,461.6,411.2z"/>
<path style="fill:#F70349;" d="M413.6,270.4L368,316l-45.6-45.6c-13.6-13.6-35.2-13.6-48.8,0s-13.6,35.2,0,48.8l45.6,45.6L304,380
	c28,5.6,57.6,8,88.8,8c15.2,0,29.6-0.8,43.2-1.6l-20-20.8l45.6-45.6c6.4-6.4,10.4-15.2,10.4-24s-3.2-17.6-10.4-24
	C448.8,257.6,426.4,257.6,413.6,270.4z"/>
<g>
</g>
<g>
</g>
<g>
</g>
<g>
</g>
<g>
</g>
<g>
</g>
<g>
</g>
<g>
</g>
<g>
</g>
<g>
</g>
<g>
</g>
<g>
</g>
<g>
</g>
<g>
</g>
<g>
</g>
</svg>
